<?xml version="1.0" standalone="no"?>
<!DOCTYPE svg PUBLIC "-//W3C//DTD SVG 20010904//EN"
 "http://www.w3.org/TR/2001/REC-SVG-20010904/DTD/svg10.dtd">
<svg version="1.0" xmlns="http://www.w3.org/2000/svg"
 width="2048.000000pt" height="1365.000000pt" viewBox="0 0 2048.000000 1365.000000"
 preserveAspectRatio="xMidYMid meet">

<g transform="translate(0.000000,1365.000000) scale(0.100000,-0.100000)"
fill="#000000" stroke="none">
<path d="M0 12149 l0 -1502 218 7 c585 16 778 21 905 21 134 0 139 -1 158 -24
25 -30 25 -96 0 -175 -11 -34 -26 -81 -33 -105 -8 -27 -24 -53 -41 -65 -28
-21 -35 -21 -618 -19 l-589 1 0 -170 0 -170 68 6 c37 3 171 8 298 12 173 5
233 3 239 -6 4 -6 0 -17 -8 -23 -8 -7 -18 -30 -23 -52 -10 -51 -8 -44 -23 -89
-11 -32 -18 -81 -21 -143 0 -6 -9 -15 -21 -18 -12 -4 -18 -12 -15 -21 5 -12
-34 -14 -244 -14 l-250 0 0 -50 0 -50 52 0 c29 0 70 -6 93 -14 22 -8 66 -19
97 -26 42 -8 68 -21 103 -52 54 -47 65 -71 54 -110 -7 -26 -5 -28 29 -37 20
-5 54 -13 75 -17 41 -7 57 -22 37 -34 -16 -10 -22 -122 -6 -132 6 -4 63 -8
127 -8 89 0 119 3 128 14 16 19 -14 36 -61 36 -43 0 -103 17 -116 33 -6 6 -12
27 -15 45 -6 39 4 45 93 56 30 4 72 11 92 17 35 9 37 12 48 67 6 31 15 67 20
80 7 16 6 22 -3 22 -20 1 34 40 54 40 11 0 24 10 29 23 5 12 9 18 9 13 1 -5 8
-2 18 5 21 18 385 16 439 -1 23 -8 39 -8 47 -2 7 5 77 10 157 11 392 5 459 6
464 12 6 6 6 6 -201 9 -90 1 -165 6 -169 11 -3 5 9 9 27 9 26 0 30 3 21 12 -8
8 -81 13 -239 15 -281 5 -277 4 -268 46 13 59 17 284 6 305 -8 15 -7 23 2 30
12 10 213 18 702 27 154 3 321 7 370 10 112 6 844 20 944 18 47 0 76 -5 81
-13 4 -7 7 -47 6 -89 -2 -64 -8 -89 -41 -161 -21 -47 -45 -95 -52 -107 -8 -12
-12 -27 -8 -32 11 -19 118 -44 190 -45 106 -1 677 14 684 19 6 3 363 8 429 6
14 -1 22 -7 22 -19 0 -10 5 -23 11 -29 12 -12 3 -143 -10 -143 -11 0 -32 -63
-23 -72 4 -4 50 -12 102 -19 52 -7 118 -19 145 -28 55 -18 295 -21 475 -6 52
4 104 7 114 7 19 -1 38 -21 31 -32 -2 -3 -6 -33 -10 -67 -7 -72 -17 -67 166
-88 65 -8 128 -19 141 -26 46 -24 53 -26 81 -18 16 4 59 10 98 14 77 7 92 -4
71 -50 -16 -34 1 -41 127 -50 102 -7 204 -27 225 -45 6 -4 30 -5 56 0 74 15
78 14 76 -20 -3 -35 0 -36 109 -45 104 -8 242 -24 278 -31 18 -4 27 -11 23
-19 -3 -8 3 -17 15 -20 10 -4 19 -12 19 -20 0 -7 12 -24 28 -37 15 -13 29 -31
32 -39 7 -21 4 -98 -4 -145 -7 -35 -5 -45 11 -61 34 -34 36 -66 5 -105 -56
-73 -120 -79 -572 -57 -124 6 -249 8 -277 4 -29 -4 -62 -3 -74 0 -19 6 -19 8
10 29 17 13 27 27 22 34 -12 20 -160 42 -276 42 -60 0 -166 -7 -234 -14 -68
-8 -135 -11 -150 -6 -51 15 -79 32 -90 56 -6 13 -16 24 -23 24 -7 0 -23 3 -35
6 -15 4 -30 -3 -54 -25 -47 -45 -95 -56 -249 -56 -168 0 -260 16 -295 51 -15
15 -30 22 -38 17 -6 -4 -20 -8 -29 -9 -10 -1 -21 -2 -25 -4 -5 -1 -39 -1 -77
0 -43 1 -66 -2 -62 -9 8 -12 -11 -18 -120 -36 -118 -19 -232 -19 -279 1 -35
14 -37 18 -32 49 3 21 0 41 -10 55 -14 20 -21 21 -85 16 -68 -5 -69 -6 -118
-59 -72 -79 -100 -85 -300 -62 -138 16 -177 17 -316 7 -169 -13 -472 -16 -522
-6 -29 6 -30 8 -31 60 0 30 -3 59 -6 64 -3 6 -34 10 -69 10 -47 0 -68 -5 -84
-19 -12 -10 -22 -21 -22 -25 0 -16 -88 -86 -110 -88 -93 -5 -127 10 -170 78
-41 64 -79 79 -173 71 -55 -5 -112 -30 -103 -45 8 -14 -50 -70 -86 -81 -35
-12 -170 -16 -233 -7 -16 2 -75 7 -130 11 -85 7 -169 22 -127 24 22 1 -8 26
-59 49 -49 22 -152 43 -331 67 -150 20 -193 23 -538 30 -157 4 -289 10 -294
16 -6 6 -6 9 2 9 7 0 12 8 12 18 0 10 -19 27 -50 43 l-50 27 0 -4379 0 -4379
10240 0 10240 0 0 4739 0 4739 -54 -17 c-30 -9 -63 -25 -74 -34 -10 -9 -22
-17 -26 -17 -14 0 -95 -63 -91 -70 2 -4 38 -13 80 -19 71 -12 88 -22 64 -37
-6 -3 -8 -17 -5 -30 5 -17 -2 -33 -26 -60 -36 -40 -44 -64 -22 -64 14 0 18
-20 16 -70 -1 -14 1 -19 4 -13 8 18 31 -7 40 -41 3 -15 16 -33 28 -42 34 -24
4 -34 -114 -35 -58 -1 -130 -3 -160 -4 -30 -1 -190 -5 -355 -9 -328 -7 -415
-11 -580 -28 -108 -10 -112 -10 -187 16 -87 30 -119 27 -88 -6 11 -12 17 -24
15 -28 -3 -4 6 -15 20 -24 14 -9 25 -23 25 -31 0 -7 16 -30 35 -51 19 -20 33
-39 30 -42 -8 -8 -269 -2 -275 7 -3 4 -13 11 -24 14 -11 4 -16 13 -12 22 3 8
2 14 -2 13 -4 -1 -20 4 -35 10 -16 7 -44 13 -63 15 -19 1 -34 7 -34 15 0 6 -9
12 -20 12 -11 0 -20 -4 -20 -10 0 -5 8 -7 18 -3 14 5 15 3 5 -7 -10 -10 -18
-11 -37 -3 -17 8 -27 8 -35 0 -8 -8 -11 -8 -11 1 0 9 -5 10 -16 4 -9 -5 -34
-5 -58 -1 -57 11 -78 11 -71 -1 4 -6 -13 -10 -42 -11 -26 -1 -63 -2 -81 -4
-34 -3 -61 -28 -62 -56 0 -19 -69 -35 -196 -45 -108 -9 -176 11 -233 67 -22
23 -41 45 -41 50 0 15 -31 10 -54 -9 -13 -9 -21 -23 -19 -29 6 -18 -34 -71
-65 -87 -15 -7 -72 -16 -128 -18 -109 -5 -132 -12 -114 -33 11 -13 -11 -70
-23 -58 -4 3 -7 -3 -7 -15 0 -13 -6 -22 -15 -22 -8 0 -15 -8 -15 -18 0 -23
-52 -38 -186 -54 -131 -15 -179 -3 -244 61 -38 38 -54 46 -88 49 -43 3 -42 4
-57 -62 -3 -15 -11 -34 -18 -40 -13 -13 -61 -34 -92 -40 -45 -9 -74 -26 -69
-39 7 -19 -9 -26 -100 -46 -88 -19 -154 -11 -213 27 -72 46 -117 44 -169 -7
-21 -21 -80 -59 -130 -85 -74 -37 -101 -46 -143 -46 -50 0 -100 18 -129 46
-14 15 -40 18 -137 15 -80 -3 -88 -6 -108 -41 -16 -26 -24 -30 -63 -30 -25 0
-77 7 -117 15 -40 8 -106 16 -147 19 -41 2 -93 8 -114 12 -31 6 -42 4 -51 -9
-36 -49 -331 -58 -427 -13 -58 27 -83 29 -528 38 -131 3 -144 0 -206 -46 -29
-21 -43 -23 -160 -24 -124 -1 -194 7 -259 30 -37 13 -175 21 -175 9 0 -18 -84
-33 -225 -41 -119 -6 -161 -12 -200 -29 -28 -11 -71 -25 -96 -29 l-46 -9 -11
57 c-17 80 -16 239 2 340 8 47 18 120 21 163 4 42 11 77 15 77 4 0 15 -9 25
-20 27 -29 118 -60 181 -60 96 0 163 49 209 155 15 33 38 83 52 110 33 65 80
225 87 295 6 64 24 128 61 225 57 149 58 152 40 284 -17 132 -34 193 -72 259
l-25 44 64 -6 c34 -3 277 -8 538 -12 261 -3 486 -10 499 -16 32 -12 45 -29 86
-113 31 -65 33 -76 31 -155 -2 -47 -6 -94 -10 -106 -6 -17 -2 -23 21 -32 97
-38 343 -53 462 -27 101 21 107 27 76 79 -38 66 -56 131 -54 197 1 33 5 62 9
64 4 3 13 26 20 51 l13 47 811 -7 c446 -4 883 -9 971 -12 88 -2 181 -4 206 -4
25 0 53 -6 62 -12 27 -20 75 -218 80 -328 2 -52 4 -56 37 -72 57 -27 406 -48
476 -29 67 19 71 24 50 68 -10 21 -31 78 -46 126 -26 82 -27 93 -17 163 9 66
13 75 34 80 14 4 484 3 1046 -2 l1022 -9 85 -64 c82 -62 110 -88 138 -128 10
-14 12 -15 8 -2 -6 21 36 29 149 29 79 0 80 1 143 47 44 33 62 53 62 69 0 31
48 44 163 44 l87 0 0 146 0 146 -67 -6 c-38 -3 -181 -6 -319 -7 -244 -2 -253
-1 -288 20 -38 24 -44 39 -65 157 -17 92 -14 169 6 185 13 11 82 13 375 10
l358 -3 0 457 0 458 -748 -6 c-473 -4 -761 -3 -783 3 -44 12 -83 54 -99 105
-6 22 -18 54 -25 70 -7 17 -15 54 -17 84 l-5 53 36 16 c31 13 92 15 426 14
400 -2 751 -8 1048 -18 l167 -6 0 881 0 881 -10240 0 -10240 0 0 -1501z
m15185 -164 c149 -3 538 -7 865 -10 327 -3 636 -7 685 -10 50 -3 293 -7 540
-11 248 -3 466 -9 485 -14 19 -4 47 -11 62 -14 15 -3 39 -19 54 -34 36 -38 94
-160 94 -200 0 -51 -25 -99 -62 -118 -31 -16 -118 -17 -1363 -15 -731 1 -1618
4 -1969 7 -613 5 -641 6 -695 26 -81 30 -144 97 -158 169 -6 30 -9 68 -8 84 2
17 3 38 4 48 2 29 50 66 115 87 58 19 82 20 571 15 281 -3 632 -7 780 -10z
m-5463 -607 c16 -5 26 -14 23 -18 -3 -5 20 -7 50 -4 45 3 57 1 62 -13 4 -9 -1
-21 -10 -28 -23 -17 -22 -49 1 -43 14 4 18 0 16 -24 -3 -36 23 -52 50 -32 13
9 24 10 37 3 10 -5 24 -8 31 -7 9 2 12 -8 10 -31 -1 -19 1 -31 5 -27 8 7 9 11
12 37 0 5 6 7 11 4 6 -4 8 -16 4 -28 -6 -19 -5 -20 10 -8 9 8 16 9 16 3 0 -6
-4 -13 -8 -16 -5 -3 -7 -20 -6 -38 3 -38 -19 -78 -42 -78 -14 0 -15 -8 -10
-45 5 -31 4 -45 -4 -45 -6 0 -9 -4 -6 -9 8 -12 46 -21 46 -10 0 5 -8 9 -17 9
-13 0 -14 3 -6 11 14 14 47 4 38 -11 -3 -5 1 -10 9 -10 10 0 16 -9 16 -21 0
-16 -4 -19 -20 -14 -11 4 -20 2 -20 -4 0 -6 6 -11 14 -11 8 0 16 -7 20 -15 3
-8 12 -15 21 -15 8 0 15 -4 15 -10 0 -5 5 -10 11 -10 5 0 7 5 3 12 -4 6 -3 8
3 5 6 -4 13 -20 15 -37 3 -22 1 -30 -11 -31 -11 0 -12 -2 -3 -6 10 -4 9 -10
-5 -26 -10 -11 -12 -17 -5 -13 21 13 13 -11 -10 -28 -13 -9 -18 -15 -13 -15
38 4 42 -1 35 -40 -4 -22 -4 -45 0 -51 4 -6 6 -23 4 -36 -2 -21 0 -23 12 -13
8 6 12 20 9 29 -4 12 1 19 16 23 19 5 20 8 9 22 -10 12 -15 13 -21 3 -4 -7
-11 -9 -15 -6 -3 4 8 21 25 39 32 32 36 54 5 28 -15 -12 -17 -12 -12 1 3 10
17 15 42 14 29 -1 36 2 36 17 0 11 5 19 10 19 6 0 10 -9 10 -20 0 -11 7 -20
16 -20 8 0 12 -4 9 -10 -8 -13 8 -13 21 0 7 7 9 0 8 -21 -2 -23 3 -33 21 -41
14 -6 21 -16 18 -27 -3 -12 3 -16 22 -16 18 0 27 6 32 23 6 25 21 28 47 9 16
-11 17 -17 7 -33 -11 -18 -12 -18 -6 2 6 23 -19 42 -30 24 -4 -6 0 -10 7 -11
10 0 10 -2 1 -6 -7 -2 -13 -9 -13 -14 0 -6 4 -8 9 -4 5 3 12 1 15 -4 4 -5 18
-8 31 -5 14 2 25 3 25 2 0 -2 -4 -18 -9 -36 -6 -20 -6 -30 0 -27 5 4 9 1 9 -4
0 -6 -4 -11 -8 -11 -5 0 -9 -7 -9 -15 0 -8 6 -15 14 -15 7 0 13 -4 13 -10 0
-5 9 -10 20 -10 11 0 20 4 20 10 0 5 7 7 15 4 8 -4 15 -3 15 0 0 4 -11 11 -25
16 -22 8 -24 12 -13 24 9 10 15 10 20 3 4 -6 10 -8 14 -4 4 4 13 2 21 -4 10
-9 13 -7 13 9 0 25 25 35 52 21 13 -7 18 -7 14 -1 -3 6 3 14 15 17 15 5 18 10
10 18 -6 6 -11 17 -11 24 0 11 5 11 20 3 11 -6 20 -17 20 -25 0 -8 5 -15 10
-15 13 0 13 17 -1 25 -5 4 -8 12 -6 18 2 7 -3 17 -12 24 -14 11 -12 12 12 13
19 0 27 -5 27 -17 0 -13 3 -14 12 -5 13 13 20 72 9 72 -4 0 -8 7 -8 16 0 11 7
8 22 -10 12 -14 32 -26 43 -26 11 0 24 -5 28 -12 5 -8 2 -9 -10 -5 -12 5 -16
3 -14 -5 3 -7 18 -14 34 -16 16 -1 25 1 19 5 -5 4 -10 15 -10 23 0 8 -11 17
-25 20 -17 4 -21 8 -12 14 7 4 19 5 27 2 8 -3 21 4 29 16 14 20 43 17 30 -4
-4 -6 1 -6 14 1 12 7 23 7 26 2 4 -5 22 -8 41 -7 31 3 33 1 24 -16 -9 -16 -6
-24 10 -39 11 -10 27 -19 36 -19 8 0 15 -8 15 -17 0 -13 -2 -15 -8 -5 -11 17
-42 5 -42 -17 0 -9 -3 -26 -6 -37 -4 -17 0 -23 21 -28 15 -4 23 -11 19 -17 -4
-7 -9 -7 -13 -2 -10 16 -38 22 -49 11 -6 -6 -12 -6 -17 3 -6 8 -4 10 5 4 9 -5
11 -4 6 3 -14 23 -25 12 -22 -22 1 -19 -1 -33 -6 -30 -4 3 -8 0 -8 -6 0 -6 -4
-8 -10 -5 -5 3 -16 3 -22 -2 -7 -4 -17 -8 -23 -8 -5 -1 -9 -6 -8 -13 2 -7 -4
-12 -12 -12 -8 0 -15 -4 -15 -10 0 -5 5 -10 10 -10 6 0 10 -4 10 -10 0 -18
-20 -11 -42 15 -27 32 -36 31 -48 -1 -8 -19 -15 -24 -30 -19 -15 5 -22 1 -29
-17 -6 -13 -10 -17 -10 -9 -1 8 -8 11 -18 7 -13 -4 -11 0 6 14 28 24 24 25
-18 4 -19 -9 -30 -22 -27 -29 3 -8 -8 -18 -27 -26 -18 -7 -35 -18 -39 -23 -5
-7 -8 -7 -8 1 0 7 11 20 26 29 17 12 22 20 15 27 -8 8 -15 7 -23 -1 -7 -7 -8
-12 -3 -12 22 0 -35 -29 -70 -36 -35 -6 -38 -5 -31 12 4 10 4 15 0 12 -3 -4
-16 4 -28 17 -16 18 -26 21 -39 14 -20 -12 -37 -4 -37 17 0 8 -7 14 -16 14 -9
0 -12 5 -8 13 5 8 2 7 -9 -2 -16 -12 -17 -12 -10 5 3 10 11 22 17 26 20 14
-18 8 -43 -6 -28 -15 -52 -2 -43 24 4 12 1 11 -15 -3 -11 -9 -23 -14 -26 -10
-4 3 -7 1 -7 -5 0 -6 8 -16 18 -21 13 -8 14 -10 2 -11 -8 0 -22 5 -30 10 -8 5
-11 10 -6 10 5 0 3 7 -4 15 -7 8 -10 21 -7 29 10 26 -31 26 -48 -1 -12 -18
-19 -22 -30 -13 -9 8 -14 7 -19 -5 -3 -8 -1 -15 4 -15 5 0 16 -7 24 -16 13
-12 13 -18 3 -28 -13 -15 -41 -10 -31 5 3 5 11 7 17 3 7 -3 1 4 -13 15 -14 11
-31 21 -39 21 -7 0 -11 6 -7 15 7 18 -10 20 -18 3 -3 -7 -3 -2 0 10 5 21 3 23
-15 18 -12 -3 -31 -9 -43 -12 -16 -5 -20 -3 -15 9 4 10 0 14 -11 12 -9 -2 -19
-4 -22 -4 -3 -1 1 -5 9 -10 11 -7 9 -12 -10 -22 -26 -13 -129 -19 -129 -6 0
12 -15 8 -36 -9 -18 -14 -18 -15 6 -8 21 5 23 4 12 -7 -10 -10 -19 -11 -42 -2
-21 8 -32 8 -37 1 -4 -7 -1 -8 7 -3 8 5 11 4 7 -2 -3 -5 -16 -9 -29 -8 -13 1
-32 -3 -43 -9 -21 -11 -27 -13 -46 -15 -7 0 -43 -33 -82 -72 -61 -63 -78 -74
-134 -91 -36 -11 -68 -17 -71 -13 -4 3 -7 37 -8 75 -2 37 -3 79 -4 92 -1 12
-1 25 0 28 1 3 3 23 4 45 3 34 10 94 19 155 2 8 7 21 11 29 6 9 5 12 -2 7 -12
-7 -9 84 3 104 9 14 -8 13 -23 -2 -7 -7 -12 -9 -12 -5 0 5 12 19 26 32 20 18
23 28 16 42 -7 13 -4 31 13 66 18 36 20 47 9 47 -8 0 -14 7 -14 15 0 8 4 15 9
15 5 0 14 14 20 30 7 20 7 30 0 30 -6 0 -3 7 5 16 19 19 20 26 4 43 -10 11
-10 13 0 7 6 -4 12 -4 13 1 0 4 2 19 3 33 1 14 6 36 10 49 6 16 5 21 -3 17 -6
-4 -11 -3 -11 3 0 5 8 12 18 16 11 3 24 17 31 31 6 14 16 22 21 19 5 -3 7 0 4
8 -3 8 2 17 11 21 9 3 13 10 10 16 -3 5 -2 17 3 26 7 12 11 1 16 -41 7 -60 22
-99 35 -91 4 3 6 20 3 37 -4 26 -2 31 10 26 10 -3 27 6 44 24 15 16 33 29 40
29 6 0 14 9 17 20 5 20 4 19 -26 -2 -18 -11 -39 -30 -49 -42 -13 -16 -19 -18
-31 -8 -30 25 -30 61 0 87 16 13 33 25 39 25 6 0 17 7 24 15 8 9 20 13 29 9 9
-3 28 -11 43 -16z m347 -293 c0 -5 -4 -3 -9 5 -5 8 -9 22 -9 30 0 16 17 -16
18 -35z m16 -25 c3 -5 -1 -10 -9 -10 -9 0 -16 5 -16 10 0 6 4 10 9 10 6 0 13
-4 16 -10z m664 -77 c-7 -10 -14 -20 -16 -22 -1 -2 -1 6 0 18 1 11 8 21 15 21
12 0 12 -3 1 -17z m-64 -13 c3 -5 1 -10 -4 -10 -6 0 -11 5 -11 10 0 6 2 10 4
10 3 0 8 -4 11 -10z m-585 -61 c0 -18 -18 -9 -23 12 -4 16 -3 18 9 8 8 -6 14
-15 14 -20z m665 11 c3 -5 1 -10 -4 -10 -6 0 -11 5 -11 10 0 6 2 10 4 10 3 0
8 -4 11 -10z m79 -41 c-3 -5 -10 -7 -15 -3 -5 3 -7 10 -3 15 3 5 10 7 15 3 5
-3 7 -10 3 -15z m-54 -89 c0 -5 -2 -10 -4 -10 -3 0 -8 5 -11 10 -3 6 -1 10 4
10 6 0 11 -4 11 -10z m47 -16 c-3 -3 -12 -4 -19 -1 -8 3 -5 6 6 6 11 1 17 -2
13 -5z m-677 -30 c0 -2 -10 -9 -22 -15 -20 -11 -21 -10 -11 3 7 8 10 18 6 22
-4 4 0 4 10 0 9 -3 17 -8 17 -10z m30 -14 c0 -5 -2 -10 -4 -10 -3 0 -8 5 -11
10 -3 6 -1 10 4 10 6 0 11 -4 11 -10z m5323 -30 c96 -12 127 -28 166 -85 39
-58 58 -116 61 -185 4 -95 1 -110 -28 -140 -23 -23 -40 -29 -93 -34 -85 -7
-671 -15 -1759 -22 -492 -3 -906 -7 -920 -10 -20 -4 -29 2 -43 25 -21 36 -21
42 -2 35 16 -7 20 6 6 22 -4 5 -13 28 -18 51 -9 34 -8 40 3 36 10 -3 12 0 8
10 -3 8 -1 18 5 22 7 4 5 15 -6 33 l-17 27 21 -19 22 -18 -19 37 c-17 34 -18
65 0 65 4 0 5 11 2 25 -2 15 -9 22 -16 18 -6 -4 -5 1 3 10 7 9 11 26 8 38 -3
12 0 22 9 26 8 3 13 11 10 18 -2 7 -2 16 1 19 10 10 2513 7 2596 -4z m3317
-16 c194 -5 243 -14 265 -48 9 -13 24 -65 34 -117 11 -52 24 -111 29 -131 13
-48 -3 -80 -48 -94 -41 -13 -509 -21 -1800 -31 -821 -6 -889 -5 -937 11 -101
34 -169 151 -160 276 2 36 11 78 18 94 28 60 -35 57 1249 51 646 -3 1254 -8
1350 -11z m-8385 -32 c-3 -3 -11 0 -18 7 -9 10 -8 11 6 5 10 -3 15 -9 12 -12z
m32 -26 c-3 -7 -1 -18 5 -24 6 -6 6 -12 -1 -16 -6 -4 -12 -4 -12 1 -6 36 -5
53 3 53 6 0 8 -6 5 -14z m141 -61 c-3 -3 -9 2 -12 12 -6 14 -5 15 5 6 7 -7 10
-15 7 -18z m459 -22 c0 -17 -5 -16 -23 2 -19 18 -9 40 10 23 7 -7 13 -18 13
-25z m-502 9 c-3 -3 -11 0 -18 7 -9 10 -8 11 6 5 10 -3 15 -9 12 -12z m-47
-19 c-6 -8 -13 -11 -16 -8 -3 3 -12 -1 -20 -8 -13 -10 -14 -9 -4 8 6 12 20 21
31 21 15 0 17 -3 9 -13z m100 8 c10 -6 9 -10 -7 -14 -14 -3 -21 0 -21 9 0 16
9 18 28 5z m472 -45 c0 -3 -4 -8 -10 -11 -5 -3 -10 -1 -10 4 0 6 5 11 10 11 6
0 10 -2 10 -4z m-904 -56 c0 -11 -6 -20 -13 -20 -16 0 -17 12 -1 28 7 7 12 12
13 12 0 0 1 -9 1 -20z m784 -24 c0 -2 -7 -7 -16 -10 -8 -3 -12 -2 -9 4 6 10
25 14 25 6z m-875 -16 c3 -5 -1 -10 -9 -10 -8 0 -18 5 -21 10 -3 6 1 10 9 10
8 0 18 -4 21 -10z m740 -26 l16 -25 -25 16 c-14 10 -23 21 -20 26 8 13 10 12
29 -17z m-471 -4 c15 0 27 -9 34 -25 7 -15 8 -25 2 -25 -6 0 -10 6 -10 14 0 7
-13 16 -30 20 -20 4 -30 11 -29 23 0 11 3 13 6 6 2 -7 15 -13 27 -13z m456
-15 c11 -13 8 -15 -19 -15 -27 0 -30 2 -19 15 17 18 23 18 38 0z m-69 -18
c-10 -9 -11 -8 -5 6 3 10 9 15 12 12 3 -3 0 -11 -7 -18z m-444 7 c-3 -3 -12
-4 -19 -1 -8 3 -5 6 6 6 11 1 17 -2 13 -5z m203 -79 c10 -12 10 -15 -4 -15 -9
0 -16 7 -16 15 0 8 2 15 4 15 2 0 9 -7 16 -15z m-560 -31 c-8 -2 -92 -8 -186
-14 -94 -5 -211 -17 -260 -25 -107 -19 -246 -63 -257 -82 -5 -8 -16 -11 -25
-8 -10 2 -32 1 -50 -4 -18 -6 -30 -6 -27 -1 8 12 231 84 325 104 106 23 215
33 365 34 72 0 123 -2 115 -4z m133 -11 c-13 -2 -35 -2 -50 0 -16 2 -5 4 22 4
28 0 40 -2 28 -4z m94 -9 c-3 -3 -12 -4 -19 -1 -8 3 -5 6 6 6 11 1 17 -2 13
-5z m2327 -15 c65 -16 168 -50 203 -66 45 -21 50 -41 10 -43 -101 -5 -200 -1
-210 9 -8 8 -6 11 6 11 27 0 20 19 -10 26 -59 13 -66 16 -53 24 6 4 27 4 46 0
19 -4 34 -4 34 0 0 4 -30 13 -67 20 -38 7 -84 19 -103 26 -33 12 -32 13 34 9
38 -3 87 -10 110 -16z m-3073 -77 c-6 -12 -12 -54 -12 -94 -2 -89 -16 -49 -18
49 -1 51 2 62 17 65 23 6 25 3 13 -20z m-116 -32 c-3 -5 -11 -10 -16 -10 -6 0
-7 5 -4 10 3 6 11 10 16 10 6 0 7 -4 4 -10z m3576 -20 c-30 -26 -45 -26 -31 0
6 11 21 20 33 20 l22 -1 -24 -19z m-3286 -20 c-3 -5 -11 -10 -16 -10 -6 0 -7
5 -4 10 3 6 11 10 16 10 6 0 7 -4 4 -10z m295 0 c0 -5 -4 -10 -10 -10 -5 0
-10 5 -10 10 0 6 5 10 10 10 6 0 10 -4 10 -10z m2297 -72 c-3 -7 -5 -2 -5 12
0 14 2 19 5 13 2 -7 2 -19 0 -25z m-3036 -109 c9 -11 21 -20 26 -19 9 1 39
-117 31 -125 -3 -3 -28 8 -56 26 -38 23 -58 30 -77 25 -37 -9 -45 -40 -30
-116 7 -36 15 -114 17 -174 l4 -109 -19 43 c-24 53 -36 201 -28 322 5 78 9 90
35 117 35 36 71 40 97 10z m206 -14 c19 -18 38 -35 42 -37 19 -9 49 -68 44
-87 -4 -15 -1 -21 11 -21 9 0 19 -7 23 -16 3 -9 16 -15 32 -14 43 3 51 1 51
-16 0 -8 4 -13 9 -10 11 7 61 -50 61 -69 0 -7 -5 -15 -11 -17 -6 -2 15 -3 47
-3 49 0 59 -3 62 -19 2 -10 -2 -22 -9 -27 -18 -11 -7 -19 29 -22 18 -1 34 -8
37 -15 3 -7 10 -10 15 -7 6 4 17 2 24 -4 10 -8 25 -7 56 4 23 8 52 15 64 14
11 -1 2 -6 -22 -13 -24 -6 -41 -14 -37 -18 4 -3 21 -2 38 3 36 10 73 12 65 3
-6 -6 -32 -12 -56 -13 -10 -1 -10 -6 -2 -21 12 -22 46 -27 53 -7 3 6 6 3 6 -8
1 -17 3 -17 11 -5 8 13 10 12 10 -4 0 -16 5 -17 38 -11 20 4 44 13 53 21 16
14 81 19 124 11 11 -3 28 2 37 10 16 15 16 16 -1 32 -17 15 -13 20 62 96 88
88 91 83 30 -42 -40 -82 -47 -90 -128 -132 -96 -49 -201 -72 -355 -77 -233 -8
-355 22 -442 109 l-51 51 7 105 c4 57 9 125 12 150 5 41 4 44 -9 29 -17 -22
-40 -23 -57 -3 -7 8 -18 15 -25 15 -8 0 -18 21 -24 48 -9 40 -8 49 6 60 24 18
30 16 70 -23z m646 10 c0 -6 -7 -11 -16 -13 -12 -3 -15 1 -11 13 7 17 25 17
27 0z m2214 -137 c-3 -8 -6 -5 -6 6 -1 11 2 17 5 13 3 -3 4 -12 1 -19z m-1647
-47 c-12 -24 -13 -34 -1 -26 5 3 13 0 17 -6 3 -6 1 -14 -5 -18 -9 -6 -9 -15
-1 -36 12 -32 5 -66 -14 -59 -9 3 -11 -5 -8 -31 4 -30 1 -37 -17 -42 -19 -5
-20 -11 -17 -74 2 -38 1 -69 -3 -69 -4 0 -8 -7 -8 -15 0 -17 13 -20 22 -4 5 7
14 4 29 -8 11 -10 31 -24 44 -31 19 -10 22 -10 22 4 0 11 5 14 16 10 12 -4 14
-1 9 14 -8 26 14 26 42 0 32 -29 37 -55 17 -86 -16 -24 -19 -24 -24 -8 -6 17
-7 16 -12 -2 -4 -17 -11 -20 -37 -16 -17 2 -28 8 -25 13 3 5 0 9 -7 9 -8 0 -8
4 1 15 7 9 11 17 9 19 -2 2 -13 -8 -23 -22 -11 -14 -14 -22 -8 -18 7 4 10 -1
9 -14 -1 -20 -17 -29 -17 -10 0 6 -7 6 -18 -1 -32 -20 -98 7 -102 41 -4 32 0
61 9 56 5 -3 15 2 22 11 11 13 11 17 1 20 -6 3 -9 9 -6 15 4 6 -7 0 -24 -12
-37 -27 -48 -50 -30 -62 9 -5 6 -8 -10 -8 -12 0 -25 -7 -28 -15 -9 -24 -44
-39 -57 -26 -8 8 -8 11 1 11 7 0 12 8 12 18 0 14 -2 15 -9 3 -8 -12 -11 -9
-16 12 -4 15 -5 38 -3 52 4 18 0 26 -13 30 -19 6 -25 21 -11 27 16 7 113 135
192 253 21 31 82 105 87 105 2 0 -1 -9 -7 -19z m-1244 -246 c20 -31 54 -68 75
-82 21 -14 36 -30 32 -36 -3 -6 -1 -7 6 -3 6 4 39 -2 72 -14 34 -11 82 -23
107 -27 26 -3 56 -13 67 -23 11 -10 27 -18 35 -18 152 -9 234 -11 243 -5 7 4
38 7 69 8 31 0 60 3 64 8 12 12 24 8 24 -8 0 -8 -5 -15 -11 -15 -7 0 -21 -11
-33 -24 -11 -14 -28 -26 -36 -28 -22 -5 -39 -22 -32 -33 3 -5 -1 -4 -10 3 -13
10 -18 8 -32 -14 -10 -14 -15 -33 -12 -41 5 -11 1 -14 -13 -10 -13 3 -21 -1
-24 -15 -4 -13 -10 -17 -18 -12 -7 4 -10 3 -5 -4 3 -6 1 -14 -7 -19 -7 -4 -18
-21 -25 -36 -7 -17 -18 -27 -25 -24 -8 3 -19 -3 -25 -14 -7 -11 -18 -16 -27
-13 -9 4 -15 1 -15 -7 0 -10 -3 -10 -12 -1 -19 19 -45 14 -51 -9 -4 -14 -11
-20 -21 -16 -10 4 -13 1 -9 -9 4 -12 0 -14 -21 -8 -35 8 -34 -9 2 -23 l27 -10
-30 2 c-32 3 -58 -11 -49 -26 3 -5 0 -8 -7 -7 -7 2 -14 -3 -15 -9 -1 -7 -3
-16 -4 -20 -1 -5 -1 -17 0 -28 2 -17 -1 -16 -22 7 -21 25 -24 26 -34 10 -6 -9
-10 -27 -9 -39 1 -14 -6 -24 -19 -28 -19 -7 -20 -8 -3 -12 18 -4 17 -6 -4 -29
-21 -22 -21 -27 -10 -66 7 -23 15 -58 17 -77 3 -19 6 -37 8 -38 9 -10 55 11
59 25 2 10 5 -3 8 -27 3 -25 -1 -54 -8 -68 -16 -32 -17 -63 0 -63 8 -1 6 -5
-4 -13 -10 -8 -13 -18 -8 -27 4 -8 10 -23 13 -32 3 -10 15 -18 26 -18 11 0 20
-6 20 -14 0 -8 3 -23 6 -33 5 -14 4 -15 -4 -4 -6 8 -19 12 -31 8 -12 -3 -19
-2 -16 3 3 4 -2 13 -10 20 -8 7 -15 22 -16 34 0 11 -4 30 -9 41 -7 14 -8 9 -4
-17 4 -25 2 -38 -5 -38 -6 0 -10 4 -8 8 1 4 -4 25 -12 45 -13 33 -27 43 -54
38 -5 -1 -6 3 -2 9 3 6 11 8 16 5 5 -4 4 5 -3 19 -6 14 -17 26 -24 26 -15 0
-20 18 -29 102 -6 56 -24 86 -45 73 -6 -4 -33 -9 -59 -11 -48 -5 -50 -4 -80
38 -36 48 -40 96 -16 166 9 24 14 46 11 50 -4 7 -30 187 -42 287 -3 33 -13 72
-20 87 -18 35 -18 43 1 28 8 -7 15 -19 15 -27 0 -8 5 -24 12 -36 7 -12 13 -27
14 -34 1 -6 6 -19 11 -28 12 -22 6 138 -8 226 -11 64 -11 67 20 129 25 50 31
73 27 100 -5 29 -2 25 18 -22 13 -31 41 -82 62 -113z m704 65 c25 -16 -16 -23
-60 -10 -5 1 30 18 40 19 3 0 12 -3 20 -9z m-495 -170 c13 -6 15 -9 5 -9 -8 0
-22 4 -30 9 -18 12 -2 12 25 0z m260 -30 l160 -8 -170 3 c-93 2 -183 8 -200
14 -28 10 -27 10 10 5 22 -4 112 -10 200 -14z m278 13 c-7 -2 -19 -2 -25 0 -7
3 -2 5 12 5 14 0 19 -2 13 -5z m-55 -10 c-10 -2 -26 -2 -35 0 -10 3 -2 5 17 5
19 0 27 -2 18 -5z m260 -158 c9 1 16 8 14 15 -1 6 2 9 8 5 5 -3 10 0 11 7 0 7
4 4 8 -7 12 -30 2 -47 -25 -42 -13 2 -24 0 -24 -5 0 -5 -4 -6 -10 -3 -5 3 -11
1 -11 -4 -1 -6 -2 -16 -3 -23 0 -6 -7 -13 -15 -16 -8 -3 -11 0 -7 7 4 6 1 11
-9 11 -19 0 -38 45 -30 71 6 18 7 18 41 0 19 -11 43 -18 52 -16z m255 -8 c18
4 19 3 7 -6 -24 -17 -40 -13 -39 12 1 15 3 17 6 6 3 -11 11 -15 26 -12z m-312
-109 c11 -21 11 -22 -4 -9 -10 7 -17 17 -17 22 0 15 9 10 21 -13z m-321 -22
c0 -3 -4 -8 -10 -11 -5 -3 -10 -1 -10 4 0 6 5 11 10 11 6 0 10 -2 10 -4z m219
-9 c11 3 21 -4 29 -21 10 -23 8 -29 -20 -57 -18 -17 -34 -27 -36 -20 -2 6 -8
11 -13 11 -5 0 -3 -10 6 -23 14 -22 13 -23 -15 -34 -17 -6 -30 -7 -30 -2 0 5
5 9 11 9 5 0 3 10 -5 22 -17 24 -20 39 -8 37 28 -5 42 3 42 24 0 30 13 74 17
60 2 -6 12 -9 22 -6z m-319 -81 c0 -3 -4 -8 -10 -11 -5 -3 -10 -1 -10 4 0 6 5
11 10 11 6 0 10 -2 10 -4z m370 -25 c0 -5 -6 -14 -14 -21 -18 -14 -10 -41 12
-38 8 2 16 -5 17 -15 3 -16 1 -16 -23 2 -15 10 -33 20 -41 23 -8 2 -16 14 -18
27 -2 17 1 22 12 18 8 -4 17 -2 20 3 8 12 35 13 35 1z m-134 -30 c-12 -19 -24
-12 -19 10 4 13 9 17 15 11 6 -6 7 -15 4 -21z m171 0 c0 -11 -5 -18 -9 -15 -4
3 -5 11 -1 19 7 21 12 19 10 -4z m-592 -61 c3 -5 1 -10 -4 -10 -6 0 -11 5 -11
10 0 6 2 10 4 10 3 0 8 -4 11 -10z m819 -22 c-6 -9 -34 -11 -34 -3 0 3 6 12
13 19 12 14 31 0 21 -16z m-103 -21 c-8 -8 -11 -3 -11 19 1 25 2 27 11 11 8
-14 8 -22 0 -30z m-815 -162 c1 -8 -2 -13 -7 -9 -5 3 -9 12 -9 21 0 19 13 9
16 -12z m33 -72 c1 -7 -6 -13 -14 -13 -15 0 -15 7 -5 65 2 11 17 -32 19 -52z
m1157 -79 c34 -26 34 -27 18 -51 -11 -18 -13 -28 -5 -36 7 -7 13 -3 20 14 5
14 21 39 36 57 23 27 33 32 72 32 54 0 65 -11 80 -75 13 -56 2 -135 -22 -155
-20 -16 -140 -17 -159 0 -12 9 -20 10 -29 1 -13 -10 -127 -30 -175 -31 -21 0
-23 3 -17 31 l7 31 -31 -16 c-16 -9 -37 -16 -46 -16 -8 0 -15 -4 -15 -10 0 -5
-7 -10 -15 -10 -8 0 -15 9 -15 20 0 25 -4 25 -41 -2 -29 -22 -31 -22 -43 -5
-7 9 -18 17 -25 17 -17 0 -51 61 -51 93 0 31 7 34 26 10 12 -16 13 -13 14 24
0 23 4 44 8 47 9 5 38 -21 72 -64 l19 -25 1 27 c0 15 11 40 24 55 29 33 47 27
82 -25 21 -31 34 -32 34 -5 0 8 -4 11 -10 8 -5 -3 -10 3 -10 14 0 50 108 80
160 44 l25 -17 -19 22 c-26 30 -12 28 30 -4z m-216 -10 c0 -14 -3 -14 -15 -4
-8 7 -15 14 -15 16 0 2 7 4 15 4 8 0 15 -7 15 -16z m560 -29 c16 -30 7 -119
-14 -140 -18 -18 -50 -19 -63 -2 -33 41 -18 118 29 151 29 21 32 20 48 -9z
m130 -40 c0 -34 -27 -75 -50 -75 -17 0 -11 51 11 81 27 38 39 37 39 -6z
m-1590 19 c0 -8 -19 -13 -24 -6 -3 5 1 9 9 9 8 0 15 -2 15 -3z m-90 -119 c0
-8 -4 -15 -10 -15 -5 0 -7 7 -4 15 4 8 8 15 10 15 2 0 4 -7 4 -15z m50 -46 c0
-5 -4 -9 -10 -9 -5 0 -10 7 -10 16 0 8 5 12 10 9 6 -3 10 -10 10 -16z m-33
-14 c0 -8 -4 -15 -9 -15 -4 0 -8 7 -8 15 0 8 4 15 8 15 5 0 9 -7 9 -15z m70
-12 c2 -6 -3 -13 -12 -16 -8 -4 -15 -2 -15 3 0 6 6 10 13 10 8 0 7 4 -3 11
-12 9 -12 10 -1 7 8 -3 16 -9 18 -15z m-50 -35 c-3 -7 -5 -2 -5 12 0 14 2 19
5 13 2 -7 2 -19 0 -25z m60 -15 c-3 -3 -11 -2 -17 2 -9 6 -9 10 1 16 14 8 27
-7 16 -18z m44 -6 c-6 -8 -8 -17 -4 -21 4 -3 -3 -15 -15 -26 -12 -12 -22 -16
-22 -11 0 6 8 15 18 20 16 10 16 10 0 11 -10 0 -18 4 -18 10 0 9 29 29 44 30
5 0 3 -6 -3 -13z m359 -7 c0 -5 -12 -10 -27 -9 l-28 1 25 8 c14 4 26 8 28 9 1
1 2 -3 2 -9z m64 -4 c23 -12 24 -14 8 -18 -10 -3 -19 -13 -19 -21 0 -14 3 -14
16 -4 9 7 12 8 8 1 -4 -7 0 -17 7 -23 12 -10 15 -7 18 16 4 36 41 43 72 14 15
-14 29 -19 41 -15 11 5 16 4 12 -3 -4 -6 3 -9 17 -8 19 2 22 -1 18 -21 -2 -14
0 -24 7 -24 7 0 11 -8 9 -18 -2 -11 12 -34 35 -57 21 -21 35 -40 32 -44 -3 -3
-10 1 -15 9 -6 8 -10 12 -10 7 0 -4 -10 -1 -23 8 -17 11 -31 12 -56 5 -18 -5
-38 -7 -46 -4 -9 4 -13 -1 -12 -14 1 -13 6 -18 16 -14 10 4 13 1 8 -10 -3 -9
2 -26 10 -38 13 -18 13 -24 2 -30 -9 -6 -19 2 -34 25 -17 28 -22 31 -33 19 -7
-8 -11 -18 -7 -23 3 -5 1 -11 -5 -13 -7 -2 -7 -14 0 -37 5 -19 7 -37 5 -42 -3
-4 5 -11 17 -15 13 -4 34 -15 47 -25 32 -25 39 -24 33 6 -5 29 17 34 41 10 8
-8 18 -11 22 -7 4 4 5 -1 3 -10 -4 -22 6 -22 39 -1 19 13 28 14 31 5 2 -7 7
-10 12 -7 4 2 18 -6 31 -18 33 -32 80 -51 89 -37 9 14 32 -12 28 -31 -2 -9 5
-13 18 -11 15 2 23 -4 27 -18 3 -11 10 -20 16 -20 6 0 7 8 4 17 -5 12 -2 15
10 10 11 -4 17 -1 17 7 0 8 -6 17 -12 19 -7 3 -3 6 10 6 12 1 30 -8 39 -18 9
-11 20 -18 25 -15 5 3 15 1 23 -6 9 -7 15 -8 20 0 8 13 25 13 25 0 0 -5 -16
-12 -36 -16 -41 -8 -28 -24 19 -24 16 0 26 -4 22 -9 -3 -5 0 -13 6 -17 9 -5
10 2 6 24 -5 25 -3 30 9 25 33 -13 1 -93 -38 -93 -16 0 -18 -6 -15 -29 4 -24
2 -28 -14 -24 -10 3 -19 10 -19 16 0 5 -9 2 -20 -8 -12 -11 -31 -20 -43 -22
-13 -2 -17 0 -10 5 8 5 9 13 3 22 -7 11 -11 9 -19 -13 -12 -30 -22 -37 -14 -9
2 10 -3 25 -13 33 -10 8 -15 9 -11 2 4 -6 2 -13 -4 -15 -9 -3 -9 -9 -1 -25 10
-18 9 -20 -8 -16 -11 3 -17 9 -14 14 3 5 -2 9 -11 9 -9 0 -13 -5 -9 -11 5 -8
1 -8 -14 0 -25 13 -65 15 -58 2 3 -5 -1 -11 -9 -14 -21 -9 -7 21 17 34 22 12
21 48 -2 65 -11 9 -17 8 -27 -5 -15 -19 -17 -35 -3 -26 6 3 10 1 10 -4 0 -6
-5 -11 -11 -11 -6 0 -9 -7 -5 -15 3 -8 1 -15 -4 -15 -6 0 -10 5 -10 11 0 8 -4
8 -14 0 -12 -10 -15 -8 -18 8 -2 14 -7 18 -16 12 -9 -6 -10 -14 -3 -34 7 -18
7 -27 -2 -30 -19 -7 -47 12 -47 31 -1 16 -1 16 -14 0 -12 -16 -15 -16 -61 1
-27 10 -43 21 -36 25 6 4 11 12 11 17 0 6 -4 7 -10 4 -5 -3 -10 -1 -10 5 0 7
-7 9 -16 6 -15 -6 -15 -4 -3 11 7 10 -2 5 -20 -12 -32 -29 -34 -29 -28 -7 4
19 2 22 -10 17 -9 -3 -36 -3 -60 1 -36 5 -41 9 -32 20 9 11 8 14 -5 14 -10 0
-15 4 -12 9 3 5 -1 11 -9 15 -8 3 -15 15 -15 26 0 12 -4 19 -10 15 -5 -3 -7
-12 -3 -20 3 -8 1 -15 -4 -15 -5 0 -9 10 -10 22 -1 11 -8 25 -15 29 -7 5 -8 9
-3 9 6 0 4 4 -4 9 -15 10 -20 86 -7 114 6 12 4 17 -7 17 -9 0 -20 6 -24 13 -4
8 -16 16 -25 20 -14 5 -15 10 -5 31 7 14 15 26 20 26 4 0 7 4 7 10 0 5 -7 7
-15 4 -11 -4 -13 -2 -9 9 3 9 12 18 20 21 8 3 14 12 14 21 0 8 6 15 13 15 6 1
1 8 -13 16 -14 8 -18 13 -9 11 9 -3 22 -1 30 4 11 7 12 12 2 28 -10 15 -10 21
0 24 8 3 5 10 -8 21 -11 8 -15 16 -7 16 6 0 12 8 12 18 0 10 6 26 13 36 13 17
15 17 45 2 38 -20 58 -21 45 -3 -8 10 -9 22 -4 42 2 9 18 6 45 -9z m488 -70
c3 2 8 -2 12 -11 3 -9 -1 -18 -10 -22 -8 -3 -13 -12 -10 -19 3 -9 -1 -14 -12
-14 -17 0 -55 20 -38 20 5 0 3 6 -3 14 -17 21 -3 48 21 40 15 -4 19 -3 14 7
-4 8 -1 6 7 -3 8 -10 16 -15 19 -12z m-893 -32 c2 -2 4 -17 3 -34 0 -16 4 -32
9 -35 12 -8 12 -55 0 -55 -8 0 -20 23 -27 53 -1 4 -3 10 -4 15 -1 4 -3 14 -4
22 0 9 -9 14 -20 12 -16 -3 -18 -1 -8 11 6 7 8 17 4 22 -7 7 38 -3 47 -11z
m222 -267 c-1 -12 -15 -9 -19 4 -3 6 1 10 8 8 6 -3 11 -8 11 -12z m7040 -31
c1 -6 1 -14 0 -18 0 -5 8 -8 18 -8 14 0 19 -6 16 -20 -2 -11 2 -20 8 -20 8 0
7 -4 -2 -9 -13 -8 -12 -13 6 -28 23 -19 38 -108 21 -119 -5 -3 -7 -11 -5 -17
12 -37 -165 -88 -179 -52 -4 8 -15 15 -25 15 -12 0 -16 5 -13 15 4 8 2 15 -4
15 -6 0 -6 15 0 43 5 23 11 61 15 85 3 23 9 42 13 42 4 0 5 11 2 25 -2 14 0
25 6 25 5 0 12 9 15 19 7 28 105 35 108 7z m-6721 -328 c0 -5 -7 -8 -15 -8
-19 0 -56 31 -49 41 5 9 64 -22 64 -33z m214 -13 c3 -8 1 -15 -4 -15 -6 0 -10
7 -10 15 0 8 2 15 4 15 2 0 6 -7 10 -15z m-550 -21 c15 -21 16 -31 8 -49 -8
-18 -8 -25 4 -29 8 -3 14 -15 14 -26 0 -11 5 -20 11 -20 5 0 7 -4 4 -10 -11
-18 -15 -53 -6 -64 18 -24 21 -64 5 -70 -12 -4 -13 -10 -6 -19 6 -6 11 -16 11
-22 1 -5 5 -10 10 -10 5 0 12 -3 16 -7 4 -4 13 -4 21 -1 8 3 22 -3 30 -13 14
-19 14 -19 7 0 -4 13 -2 17 8 14 16 -5 60 -118 51 -132 -3 -5 0 -6 7 -2 6 4 9
12 6 17 -3 5 1 6 9 3 9 -3 13 -10 10 -15 -3 -5 0 -9 5 -9 6 0 11 -7 11 -15 0
-8 -5 -15 -10 -15 -10 0 -5 -9 28 -45 7 -8 20 -11 29 -8 12 5 15 2 10 -11 -5
-12 0 -19 17 -26 13 -5 27 -14 31 -20 3 -5 10 -8 15 -5 13 8 28 -25 22 -48 -4
-16 -2 -19 11 -14 9 3 16 3 14 -1 -1 -4 3 -8 8 -10 6 -2 13 -12 17 -23 4 -10
14 -19 23 -19 13 0 20 -19 16 -44 -1 -5 5 -6 14 -3 8 4 15 2 15 -2 0 -5 3 -16
6 -24 5 -15 -18 -18 -32 -5 -3 4 -13 4 -22 1 -11 -5 -14 -2 -9 10 3 9 3 17 -2
17 -8 0 -21 30 -25 55 0 6 -13 11 -28 13 -15 2 -33 11 -40 20 -7 9 -20 22 -28
29 -12 9 -15 7 -16 -13 -1 -13 2 -24 7 -24 5 0 9 -6 9 -14 0 -8 13 -29 29 -47
16 -17 32 -47 36 -66 3 -19 13 -37 21 -40 11 -4 12 -8 4 -13 -8 -5 -6 -11 5
-20 13 -11 15 -9 15 10 0 13 -8 29 -17 36 -16 12 -16 13 -1 14 9 0 21 -12 26
-27 6 -16 11 -22 11 -15 1 6 6 12 12 12 5 0 7 -4 4 -10 -3 -5 1 -10 10 -10 14
0 16 -8 12 -42 -3 -23 -10 -44 -16 -46 -6 -2 -11 -9 -11 -15 0 -6 -7 -18 -16
-28 -15 -16 -14 -17 7 -12 17 5 20 3 14 -8 -8 -12 -6 -12 8 0 12 9 17 10 17 2
0 -17 42 -71 51 -65 8 5 41 -37 34 -44 -7 -7 -75 19 -75 30 0 6 -6 6 -15 -2
-8 -7 -15 -18 -15 -24 0 -6 4 -4 10 4 5 8 12 11 16 7 4 -3 1 -14 -7 -23 -13
-16 -12 -16 9 -5 18 10 28 9 20 -1 -5 -9 25 -48 37 -48 8 0 12 -6 10 -12 -3
-8 11 -20 32 -30 21 -10 29 -16 19 -13 -19 6 -19 5 -1 -15 10 -11 15 -20 11
-20 -16 0 30 -61 66 -87 20 -15 38 -34 38 -41 0 -7 5 -10 10 -7 6 3 10 -1 10
-9 0 -9 5 -16 11 -16 6 0 8 -7 5 -16 -5 -12 -1 -14 15 -9 15 5 19 4 15 -4 -4
-6 -1 -11 7 -11 7 0 23 -9 34 -19 12 -11 24 -17 29 -13 4 4 4 1 0 -5 -4 -7 -3
-13 3 -13 5 0 11 6 14 13 2 6 3 -11 2 -40 -2 -40 2 -53 14 -58 8 -3 17 -1 19
4 2 6 8 11 14 11 6 0 5 -7 -3 -16 -10 -13 -10 -17 2 -25 8 -5 20 -7 27 -4 8 3
18 5 23 5 6 0 9 7 7 16 -2 10 2 19 8 21 16 5 57 -54 50 -72 -3 -8 -1 -17 4
-20 13 -8 52 19 43 29 -10 9 29 -4 43 -16 8 -6 10 -1 6 17 -2 15 -9 22 -16 18
-6 -3 -7 -2 -3 3 5 5 14 9 20 9 7 1 10 7 9 15 -2 8 0 12 4 7 4 -4 18 2 30 14
18 17 27 19 56 11 26 -7 39 -6 54 5 16 12 17 15 4 23 -17 11 -16 11 25 15 17
1 42 8 55 16 14 7 27 14 30 14 3 0 14 6 25 12 16 9 17 14 6 27 -7 8 -9 21 -5
27 5 9 2 10 -9 6 -10 -4 -24 -10 -34 -14 -11 -4 -14 -3 -9 5 4 7 14 12 22 12
8 0 14 6 14 13 0 7 14 21 30 30 17 10 30 23 30 29 0 6 11 8 26 5 16 -3 28 0
31 10 3 8 13 11 23 8 10 -3 21 -1 25 5 3 6 10 8 14 5 5 -2 14 8 20 23 10 22
10 25 0 15 -7 -7 -18 -13 -23 -13 -6 0 -3 7 7 14 9 7 28 11 42 8 18 -3 31 2
41 14 13 17 13 17 4 -9 -14 -41 -13 -45 15 -39 36 6 33 -23 -6 -59 -26 -24
-34 -27 -46 -17 -13 10 -19 8 -34 -11 -12 -14 -25 -21 -35 -17 -11 4 -14 1
-12 -11 2 -10 12 -19 22 -21 10 -2 16 0 12 6 -3 5 4 7 17 5 12 -2 47 5 78 16
49 17 57 17 55 4 -2 -9 -9 -21 -17 -27 -19 -15 -25 -76 -7 -76 10 0 9 -3 -2
-10 -11 -8 -12 -12 -3 -18 8 -5 9 -13 3 -22 -13 -20 -13 -43 0 -35 19 11 -3
-30 -26 -51 -29 -26 -31 -44 -4 -44 11 0 20 -5 20 -11 0 -5 -4 -7 -10 -4 -5 3
-10 1 -10 -4 0 -6 6 -11 13 -11 6 -1 -1 -12 -18 -25 -29 -24 -29 -25 -12 -42
16 -16 17 -16 12 -1 -6 15 -4 16 19 5 14 -7 26 -16 26 -20 0 -4 9 -3 19 3 26
14 74 13 65 -1 -3 -6 -15 -9 -25 -6 -11 3 -19 2 -19 -3 0 -4 10 -10 21 -13 15
-4 20 -11 17 -25 -3 -11 0 -19 7 -19 7 0 10 8 7 19 -2 10 0 18 4 18 5 0 10
-12 11 -27 0 -15 9 -33 20 -40 10 -7 25 -18 33 -25 8 -7 21 -12 28 -10 8 2 11
-1 7 -7 -3 -6 -13 -11 -21 -11 -8 0 -14 -4 -14 -10 0 -5 -6 -10 -13 -10 -8 0
-14 -6 -14 -14 0 -8 6 -12 15 -9 12 5 12 2 3 -15 -7 -13 -17 -19 -26 -16 -8 4
-12 10 -9 15 3 5 1 9 -5 9 -5 0 -11 -10 -13 -22 -2 -17 -12 -24 -38 -29 -19
-4 -69 -14 -110 -23 -332 -71 -698 -35 -1030 101 -216 89 -390 184 -501 274
-101 83 -227 226 -280 319 -11 19 -35 42 -52 50 -34 16 -47 51 -27 75 6 7 8
25 4 39 -4 19 -1 33 11 46 10 11 14 26 11 38 -4 12 0 24 9 32 11 9 14 22 10
37 -4 16 2 34 17 55 38 51 108 118 124 118 8 0 14 3 15 8 0 4 3 18 6 32 2 14
5 59 4 100 0 49 3 69 9 60 8 -13 10 -12 10 3 0 9 5 17 11 17 5 0 7 -5 3 -12
-4 -7 -3 -8 5 -4 17 11 2 29 -20 23 -11 -3 -19 -1 -19 4 0 5 6 9 13 10 8 0 9
2 0 5 -7 3 -8 15 -4 32 5 18 3 35 -7 50 -13 20 -13 22 2 16 14 -6 15 -4 1 22
-9 16 -15 52 -14 79 0 28 -2 61 -6 75 -10 38 -14 67 -20 160 -3 47 -7 105 -9
130 -2 25 1 48 6 51 6 4 7 12 2 20 -12 19 -11 69 1 69 6 0 18 -12 29 -26z
m601 17 c3 -5 1 -12 -5 -16 -5 -3 -10 1 -10 9 0 18 6 21 15 7z m63 -16 c-3 -3
-9 2 -12 12 -6 14 -5 15 5 6 7 -7 10 -15 7 -18z m139 -2 c-15 -16 -17 -16 -17
-1 0 9 6 18 13 21 20 7 22 -2 4 -20z m-713 -313 c-6 -6 -10 -3 -10 10 0 13 4
16 10 10 7 -7 7 -13 0 -20z m431 -520 c-3 -5 -12 -10 -18 -10 -7 0 -6 4 3 10
19 12 23 12 15 0z m-24 -103 c-10 -9 -11 -8 -5 6 3 10 9 15 12 12 3 -3 0 -11
-7 -18z m447 -15 c4 -39 -2 -40 -33 -5 -27 32 -25 40 7 38 18 -1 24 -8 26 -33z
m-428 -23 c0 -6 -4 -7 -10 -4 -5 3 -10 11 -10 16 0 6 5 7 10 4 6 -3 10 -11 10
-16z m2810 -290 c0 -29 -18 -59 -36 -59 -26 0 -27 29 -3 55 29 30 39 31 39 4z
m-50 -104 c0 -8 -4 -15 -10 -15 -5 0 -10 7 -10 15 0 8 5 15 10 15 6 0 10 -7
10 -15z m-1497 -60 c-7 -21 -12 -19 -10 4 0 11 5 18 9 15 4 -3 5 -11 1 -19z
m-946 -51 c-3 -3 -12 -4 -19 -1 -8 3 -5 6 6 6 11 1 17 -2 13 -5z m588 -4 c3
-5 -1 -10 -9 -10 -9 0 -16 -5 -16 -12 0 -6 -2 -9 -5 -6 -7 7 5 38 15 38 5 0
12 -4 15 -10z m-507 -55 c-3 -3 -9 2 -12 12 -6 14 -5 15 5 6 7 -7 10 -15 7
-18z m833 -68 c-10 -9 -11 -8 -5 6 3 10 9 15 12 12 3 -3 0 -11 -7 -18z m-10
-96 c5 9 9 10 9 2 0 -19 -17 -24 -30 -8 -7 8 -8 20 -3 27 6 9 9 6 11 -11 3
-19 6 -21 13 -10z m49 -95 c0 -3 -4 -8 -10 -11 -5 -3 -10 -1 -10 4 0 6 5 11
10 11 6 0 10 -2 10 -4z m-2855 -2305 c5 -16 -8 -97 -17 -106 -95 -90 -257
-225 -269 -225 -9 0 -34 16 -55 35 -45 40 -54 42 -61 15 -8 -29 -37 -24 -67
11 -30 35 -30 35 -16 132 13 86 24 117 44 117 8 0 38 -26 68 -57 29 -31 63
-68 76 -81 l24 -25 36 36 c73 70 197 167 213 167 10 0 20 -8 24 -19z m1295
-201 c27 -29 29 -29 35 -10 7 22 51 38 65 24 11 -11 -5 -138 -56 -461 -5 -37
-20 -42 -40 -15 -12 16 -14 16 -37 -6 -49 -47 -118 -49 -193 -6 -99 56 -139
188 -97 321 34 108 133 183 241 183 47 0 58 -4 82 -30z m-889 -47 c35 -38 78
-86 95 -107 l31 -40 94 59 c52 32 127 81 167 108 40 27 80 46 88 43 19 -7 18
-57 -5 -196 -11 -63 -22 -140 -26 -170 -4 -30 -14 -62 -22 -72 -20 -22 -72
-43 -82 -32 -5 5 -2 56 5 114 18 143 18 164 -2 156 -9 -3 -60 -36 -114 -72
-72 -47 -105 -64 -119 -59 -11 3 -45 34 -76 67 -30 34 -57 59 -60 56 -3 -3
-12 -58 -20 -124 -9 -65 -18 -125 -20 -131 -7 -21 -31 -15 -62 15 l-30 27 9
90 c10 104 37 301 45 321 11 28 41 12 104 -53z m-351 38 c10 -20 6 -61 -25
-276 -16 -106 -17 -111 -53 -142 -20 -18 -45 -32 -54 -33 -21 0 -22 15 -7 128
17 126 17 126 -96 24 -86 -77 -103 -88 -120 -79 -13 7 -20 7 -23 -2 -7 -22
-37 -10 -82 32 -26 23 -54 53 -63 66 -9 14 -20 22 -24 18 -9 -9 -22 -122 -22
-194 -1 -29 -3 -53 -5 -53 -22 0 -58 24 -70 48 -12 24 -13 55 -5 207 6 98 15
187 20 197 22 40 53 21 157 -94 86 -96 102 -118 103 -148 l1 -35 9 40 c5 22
22 53 37 68 67 72 274 247 292 247 11 0 24 -9 30 -19z m1739 -46 c16 -8 39
-26 50 -41 21 -26 21 -26 38 -6 22 25 53 35 72 23 12 -7 10 -28 -7 -132 -12
-68 -28 -176 -36 -239 -23 -177 -33 -213 -73 -259 -65 -77 -126 -94 -247 -69
-50 10 -62 17 -87 51 -45 63 -41 66 54 51 127 -21 151 -19 192 17 32 28 70
112 59 130 -2 4 -25 -4 -51 -17 -101 -52 -202 -13 -259 99 -37 72 -43 184 -14
261 26 67 83 130 132 145 42 13 140 6 177 -14z m500 -55 c21 -10 48 -31 58
-46 l20 -27 26 27 c29 29 64 34 73 11 3 -8 -8 -79 -25 -157 -16 -79 -38 -183
-47 -233 -21 -113 -33 -129 -64 -83 -13 18 -25 35 -26 37 -2 2 -22 -6 -46 -18
-161 -78 -272 3 -271 198 2 225 150 369 302 291z m516 -78 c39 -11 85 -25 103
-33 l34 -14 -68 -50 c-106 -77 -166 -143 -212 -232 l-42 -81 27 -6 c16 -2 58
-10 95 -16 92 -17 100 -29 45 -74 l-45 -37 -138 22 c-76 11 -142 23 -147 26
-5 3 7 22 25 42 59 62 94 113 137 198 22 45 55 98 72 118 17 20 29 38 26 42
-3 3 -45 10 -92 16 -95 11 -99 16 -63 75 l21 35 76 -6 c42 -4 108 -15 146 -25z
m453 -109 c52 -36 80 -72 103 -134 23 -59 24 -96 5 -167 -29 -108 -99 -184
-197 -213 -159 -48 -312 120 -278 304 13 74 26 100 76 151 84 86 211 112 291
59z m491 -118 c50 -16 81 -31 81 -40 0 -7 -17 -27 -38 -44 l-38 -30 -51 15
c-60 18 -95 8 -116 -33 -8 -15 -27 -95 -42 -178 -37 -203 -33 -194 -89 -181
-25 6 -46 14 -46 18 0 22 63 320 76 360 27 82 88 138 151 138 18 0 68 -11 112
-25z m619 6 c15 -9 16 0 -38 -276 -16 -82 -36 -208 -45 -280 -9 -71 -21 -134
-27 -140 -6 -7 -22 4 -48 33 l-38 43 -34 -21 c-96 -58 -259 6 -322 128 -39 75
-38 185 2 275 24 52 108 132 149 141 64 14 171 -31 226 -94 19 -23 38 -37 41
-32 3 5 12 48 21 96 15 91 26 121 47 129 20 8 52 7 66 -2z m-4569 -69 c6 -10
7 -39 3 -65 -6 -41 -14 -51 -84 -111 -90 -77 -100 -77 -166 1 -44 51 -53 92
-32 147 13 36 29 33 80 -19 l43 -44 61 54 c66 59 80 65 95 37z m8354 -109 c14
-21 37 -50 51 -65 14 -15 26 -29 26 -31 0 -2 -13 -2 -29 -1 -23 1 -30 -3 -33
-20 -4 -19 0 -22 24 -21 23 1 30 -3 35 -24 4 -14 6 -34 4 -44 -1 -10 9 -35 24
-55 l26 -37 -35 39 -36 39 0 -32 c0 -17 7 -43 16 -57 9 -13 14 -27 11 -30 -9
-9 -96 69 -96 86 0 11 5 9 18 -7 22 -27 31 -29 31 -8 0 9 -7 18 -16 22 -11 4
-12 8 -4 13 18 11 1 33 -21 27 -14 -4 -19 0 -19 14 0 12 5 16 15 13 13 -5 14
-2 5 20 -5 14 -7 26 -3 26 4 0 0 6 -9 13 -9 7 -18 34 -21 67 -3 30 -8 63 -12
73 -13 33 22 18 48 -20z m-6089 -189 c12 -32 6 -81 -13 -98 -23 -21 -67 -18
-64 4 11 105 13 110 43 110 16 0 30 -7 34 -16z m103 -18 c-3 -7 -9 -34 -12
-60 -5 -31 -12 -46 -22 -46 -9 0 -13 6 -10 14 3 7 9 34 12 60 5 31 12 46 22
46 9 0 13 -6 10 -14z m152 -15 c21 -13 4 -33 -18 -21 -34 18 -73 -37 -45 -64
8 -8 21 -13 29 -10 17 7 20 24 5 24 -5 0 -10 7 -10 16 0 10 7 14 23 12 18 -2
22 -9 20 -32 -3 -34 -17 -46 -55 -46 -45 0 -64 63 -32 108 16 23 57 29 83 13z
m95 -48 c-12 -65 -20 -88 -30 -85 -10 2 -10 0 0 70 6 34 13 52 23 52 11 0 12
-9 7 -37z m141 6 c6 -6 2 -12 -12 -15 -21 -6 -33 -30 -33 -71 0 -13 -6 -23
-13 -23 -11 0 -12 11 -7 48 6 35 4 49 -6 55 -8 4 -14 13 -14 19 0 12 70 2 85
-13z m89 -40 c3 -17 6 -48 6 -68 -1 -32 -2 -34 -14 -18 -15 20 -32 22 -39 5
-2 -7 -8 -10 -12 -6 -4 4 -3 20 3 35 6 15 16 40 21 56 14 36 27 34 35 -4z m57
-38 c-2 -36 2 -50 13 -54 22 -9 20 -27 -3 -27 -29 0 -34 15 -26 81 8 71 20 71
16 0z m5464 -11 c3 -5 2 -10 -4 -10 -5 0 -13 5 -16 10 -3 6 -2 10 4 10 5 0 13
-4 16 -10z m-5175 -15 c17 -21 7 -29 -18 -16 -30 16 -40 14 -58 -14 -16 -24
-16 -27 2 -46 12 -13 27 -19 41 -16 15 3 23 -1 23 -9 0 -22 -57 -17 -81 7 -16
16 -19 27 -13 52 3 18 11 38 16 45 14 17 73 15 88 -3z m5279 -81 c39 -42 71
-81 72 -88 0 -6 3 -20 6 -31 2 -11 7 -36 10 -55 3 -19 8 -37 12 -40 10 -8 32
-62 28 -67 -3 -2 -17 12 -33 31 -88 104 -98 120 -101 160 -3 29 -11 46 -29 59
-13 10 -24 29 -24 41 0 12 -7 32 -16 44 -33 47 7 18 75 -54z m-5120 40 c40
-51 15 -118 -42 -112 -64 6 -76 95 -17 125 34 17 36 17 59 -13z m5019 8 c2 -7
-2 -10 -12 -6 -9 3 -16 11 -16 16 0 13 23 5 28 -10z m-4875 -99 c4 -3 21 6 37
22 16 16 32 26 35 23 7 -7 -16 -110 -27 -122 -4 -6 -8 7 -8 29 0 37 -1 38 -19
21 -21 -19 -41 -14 -41 10 0 8 -4 14 -10 14 -5 0 -10 -9 -10 -19 0 -11 -5 -23
-12 -27 -8 -5 -10 8 -5 49 8 78 17 89 37 44 9 -20 20 -40 23 -44z m234 -31
c18 18 35 29 39 25 9 -8 -18 -127 -28 -127 -4 0 -8 14 -8 30 0 32 -9 37 -27
19 -13 -13 -33 -4 -33 17 0 8 -4 14 -10 14 -5 0 -10 -8 -10 -18 0 -21 -9 -34
-20 -27 -5 3 9 92 20 125 1 3 11 -16 23 -43 l22 -47 32 32z m4649 -19 c-7 -7
-26 7 -26 19 0 6 6 6 15 -2 9 -7 13 -15 11 -17z m-4475 7 c10 0 19 -7 19 -15
0 -11 -7 -14 -24 -9 -33 8 -43 -14 -12 -26 35 -13 33 -30 -4 -30 -30 0 -42
-17 -17 -24 44 -14 50 -17 41 -26 -7 -7 -22 -6 -43 1 l-33 12 7 56 c8 66 12
74 32 67 8 -3 23 -6 34 -6z m4489 -40 c0 -5 -4 -10 -10 -10 -5 0 -10 5 -10 10
0 6 5 10 10 10 6 0 10 -4 10 -10z m-4337 -9 c33 -13 41 -39 22 -68 -9 -13 -13
-33 -10 -43 9 -29 -10 -24 -23 5 -13 28 -32 34 -32 10 0 -8 -4 -15 -10 -15
-11 0 -13 28 -4 83 7 39 16 43 57 28z m209 -69 c10 -8 15 -19 12 -24 -3 -5
-14 -2 -24 7 -28 26 -64 16 -68 -18 -4 -37 13 -57 49 -57 16 0 29 -4 29 -10 0
-18 -59 -11 -80 10 -28 28 -27 84 2 104 24 17 52 13 80 -12z m151 -36 c37 -9
34 -28 -5 -24 -18 2 -33 -2 -35 -9 -3 -7 2 -13 9 -13 8 0 23 -7 34 -16 18 -15
17 -15 -13 -10 -28 5 -33 2 -33 -13 0 -12 10 -21 25 -25 14 -4 25 -11 25 -17
0 -6 -9 -8 -20 -5 -65 19 -61 14 -55 64 9 67 14 81 28 77 7 -2 24 -6 40 -9z
m4277 -321 c0 -22 20 -82 33 -103 5 -7 12 -26 17 -42 8 -28 7 -29 -9 -18 -44
31 -70 77 -90 157 -12 46 -21 89 -21 95 0 20 69 -68 70 -89z"/>
<path d="M9800 11242 c0 -5 7 -9 15 -9 8 0 15 4 15 9 0 4 -7 8 -15 8 -8 0 -15
-4 -15 -8z"/>
<path d="M9910 11187 c0 -18 5 -27 15 -27 13 0 14 4 4 23 -17 33 -19 33 -19 4z"/>
<path d="M9935 11200 c3 -5 8 -10 11 -10 2 0 4 5 4 10 0 6 -5 10 -11 10 -5 0
-7 -4 -4 -10z"/>
<path d="M9925 11120 c-3 -5 -1 -10 4 -10 6 0 11 5 11 10 0 6 -2 10 -4 10 -3
0 -8 -4 -11 -10z"/>
<path d="M9830 11035 c-10 -12 -10 -19 -2 -27 9 -9 12 -8 12 3 0 9 10 21 23
27 22 11 22 11 1 11 -12 1 -27 -6 -34 -14z"/>
<path d="M9770 11030 c-9 -6 -10 -10 -3 -10 6 0 15 5 18 10 8 12 4 12 -15 0z"/>
<path d="M9881 10984 c0 -11 3 -14 6 -6 3 7 2 16 -1 19 -3 4 -6 -2 -5 -13z"/>
<path d="M9945 10990 c-3 -5 -1 -10 4 -10 6 0 11 5 11 10 0 6 -2 10 -4 10 -3
0 -8 -4 -11 -10z"/>
<path d="M9930 10879 c0 -5 5 -7 10 -4 6 3 10 8 10 11 0 2 -4 4 -10 4 -5 0
-10 -5 -10 -11z"/>
<path d="M9366 10701 c-4 -7 -5 -15 -2 -18 9 -9 19 4 14 18 -4 11 -6 11 -12 0z"/>
<path d="M10215 10671 c-6 -5 -19 -11 -30 -13 -13 -2 -16 -6 -9 -11 7 -4 23 2
35 13 13 11 22 19 19 20 -4 0 -10 -4 -15 -9z"/>
<path d="M10793 10610 c-1 -11 2 -18 8 -15 11 7 12 35 1 35 -4 0 -8 -9 -9 -20z"/>
<path d="M10894 10605 c-3 -14 -10 -23 -14 -20 -14 8 1 -34 16 -46 17 -14 18
-5 3 23 -9 16 -8 19 3 16 16 -6 18 -64 2 -61 -7 1 -10 -10 -9 -28 3 -29 15
-54 15 -30 0 7 5 9 10 6 6 -3 10 -1 10 5 0 6 -7 13 -15 16 -12 5 -13 9 -4 21
10 11 14 11 21 1 5 -8 6 -3 2 14 -7 31 14 78 26 58 6 -9 13 -5 25 14 10 15 15
29 12 32 -3 3 -8 -4 -12 -15 -3 -12 -11 -21 -16 -21 -6 0 -7 6 -3 13 6 9 4 9
-8 -1 -12 -9 -18 -10 -23 -2 -4 6 -13 9 -21 6 -8 -3 -11 0 -7 10 3 7 2 14 -1
14 -3 0 -8 -11 -12 -25z"/>
<path d="M10230 10603 c8 -3 22 -11 30 -17 13 -10 13 -9 1 7 -7 9 -21 17 -30
16 -13 0 -14 -1 -1 -6z"/>
<path d="M10180 10590 c-9 -6 -10 -10 -3 -10 6 0 15 5 18 10 8 12 4 12 -15 0z"/>
<path d="M11011 10591 c-7 -5 -12 -14 -10 -20 2 -6 10 -2 17 9 14 22 13 23 -7
11z"/>
<path d="M10055 10569 c-4 -6 -5 -11 -4 -12 2 -1 14 -11 27 -21 22 -19 22 -19
22 2 0 25 -35 48 -45 31z"/>
<path d="M10135 10533 c-18 -27 -18 -28 1 -11 14 12 24 14 37 6 10 -5 21 -7
25 -4 3 4 -4 9 -16 13 -12 3 -19 9 -16 14 3 5 1 9 -4 9 -5 0 -18 -12 -27 -27z"/>
<path d="M11001 10514 c0 -11 3 -14 6 -6 3 7 2 16 -1 19 -3 4 -6 -2 -5 -13z"/>
<path d="M10205 10510 c-6 -9 1 -14 18 -11 4 0 7 -4 7 -11 0 -6 2 -9 5 -6 7 7
-5 38 -15 38 -5 0 -12 -4 -15 -10z"/>
<path d="M10697 10506 c-4 -10 -1 -13 9 -9 7 3 14 9 14 14 0 14 -17 10 -23 -5z"/>
<path d="M10320 10489 c0 -5 5 -7 10 -4 6 3 10 8 10 11 0 2 -4 4 -10 4 -5 0
-10 -5 -10 -11z"/>
<path d="M10945 10490 c-3 -5 -1 -10 4 -10 6 0 11 5 11 10 0 6 -2 10 -4 10 -3
0 -8 -4 -11 -10z"/>
<path d="M10690 10425 c0 -9 6 -12 15 -9 8 4 12 10 9 15 -8 14 -24 10 -24 -6z"/>
<path d="M10513 10363 c-18 -6 -16 -33 1 -33 8 0 17 4 20 8 7 12 -7 30 -21 25z"/>
<path d="M12900 10520 c0 -5 5 -10 11 -10 5 0 7 5 4 10 -3 6 -8 10 -11 10 -2
0 -4 -4 -4 -10z"/>
<path d="M10550 9510 c0 -5 5 -10 10 -10 6 0 10 5 10 10 0 6 -4 10 -10 10 -5
0 -10 -4 -10 -10z"/>
<path d="M10492 9358 c7 -19 38 -22 38 -4 0 10 -9 16 -21 16 -12 0 -19 -5 -17
-12z"/>
<path d="M10539 9272 c-29 -24 -11 -36 20 -13 14 11 19 21 13 25 -5 3 -20 -2
-33 -12z"/>
<path d="M10665 9209 c-4 -6 -5 -13 -2 -16 7 -7 27 6 27 18 0 12 -17 12 -25
-2z"/>
<path d="M9326 9202 c-2 -4 -1 -14 4 -22 7 -11 9 -9 7 8 -1 24 -3 26 -11 14z"/>
<path d="M9328 9153 c-11 -23 -8 -77 7 -99 14 -22 17 -23 31 -9 11 11 13 19 6
28 -6 7 -13 29 -17 50 -7 34 -19 47 -27 30z"/>
<path d="M9240 9032 c0 -24 9 -60 20 -82 11 -22 20 -44 20 -51 0 -17 50 -60
61 -54 22 14 6 111 -20 120 -9 2 -31 28 -48 57 l-32 53 -1 -43z"/>
<path d="M9790 8968 c0 -4 4 -8 9 -8 6 0 12 4 15 8 3 5 -1 9 -9 9 -8 0 -15 -4
-15 -9z"/>
<path d="M9325 8730 c-3 -5 -1 -10 4 -10 6 0 11 5 11 10 0 6 -2 10 -4 10 -3 0
-8 -4 -11 -10z"/>
<path d="M9390 8710 c0 -19 3 -21 12 -12 9 9 9 15 0 24 -9 9 -12 7 -12 -12z"/>
<path d="M9405 8620 c-8 -13 -1 -24 14 -19 6 3 7 10 2 18 -6 10 -10 10 -16 1z"/>
<path d="M9495 8521 c-3 -5 -1 -12 5 -16 5 -3 10 1 10 9 0 18 -6 21 -15 7z"/>
<path d="M9445 8481 c-3 -5 -1 -12 5 -16 5 -3 10 1 10 9 0 18 -6 21 -15 7z"/>
<path d="M9531 8414 c27 -29 29 -29 22 -5 -3 11 -14 22 -25 24 -19 5 -19 4 3
-19z"/>
<path d="M9505 8380 c3 -5 8 -10 11 -10 2 0 4 5 4 10 0 6 -5 10 -11 10 -5 0
-7 -4 -4 -10z"/>
<path d="M10216 7847 c3 -10 9 -15 12 -12 3 3 0 11 -7 18 -10 9 -11 8 -5 -6z"/>
<path d="M9955 7700 c3 -5 12 -7 20 -3 21 7 19 13 -6 13 -11 0 -18 -4 -14 -10z"/>
<path d="M10069 7648 c-6 -21 -5 -38 2 -38 5 0 9 9 9 20 0 16 -7 28 -11 18z"/>
<path d="M10450 7630 c0 -5 5 -10 10 -10 6 0 10 5 10 10 0 6 -4 10 -10 10 -5
0 -10 -4 -10 -10z"/>
<path d="M10156 7585 c4 -8 8 -15 10 -15 2 0 4 7 4 15 0 8 -4 15 -10 15 -5 0
-7 -7 -4 -15z"/>
<path d="M10670 7540 c0 -5 11 -10 25 -10 14 0 25 5 25 10 0 6 -11 10 -25 10
-14 0 -25 -4 -25 -10z"/>
<path d="M10760 7533 c0 -15 18 -35 27 -32 5 2 1 12 -9 22 -10 9 -18 14 -18
10z"/>
<path d="M10675 7499 c-11 -17 1 -21 15 -4 8 9 8 15 2 15 -6 0 -14 -5 -17 -11z"/>
<path d="M10234 7475 c8 -8 17 -15 20 -15 3 0 3 7 0 15 -4 8 -13 15 -21 15
-12 0 -12 -2 1 -15z"/>
<path d="M10275 7430 c-3 -5 -1 -10 4 -10 6 0 11 5 11 10 0 6 -2 10 -4 10 -3
0 -8 -4 -11 -10z"/>
<path d="M9894 7139 c-5 -8 -3 -9 6 -4 10 6 12 3 8 -13 -4 -12 -2 -22 3 -22
12 0 12 37 0 45 -5 3 -13 0 -17 -6z"/>
<path d="M9937 7007 c-3 -8 3 -14 16 -15 12 0 17 2 12 6 -6 4 -13 11 -16 15
-4 4 -9 2 -12 -6z"/>
<path d="M9930 6972 c0 -5 8 -16 19 -26 16 -15 19 -15 31 -1 9 11 9 15 1 15
-7 0 -9 5 -6 10 4 6 -5 10 -19 10 -14 0 -26 -4 -26 -8z"/>
<path d="M10130 6796 c0 -9 7 -16 16 -16 9 0 14 5 12 12 -6 18 -28 21 -28 4z"/>
<path d="M10078 6323 c7 -3 16 -2 19 1 4 3 -2 6 -13 5 -11 0 -14 -3 -6 -6z"/>
<path d="M10320 6297 c0 -12 -4 -16 -12 -11 -7 4 -9 3 -5 -1 9 -11 37 -16 37
-7 0 4 -5 14 -10 22 -8 13 -10 12 -10 -3z"/>
<path d="M11340 5900 c0 -5 5 -10 10 -10 6 0 10 5 10 10 0 6 -4 10 -10 10 -5
0 -10 -4 -10 -10z"/>
<path d="M10707 5820 c-3 -13 0 -20 8 -20 21 0 27 16 11 29 -11 9 -15 7 -19
-9z"/>
<path d="M10590 5786 c0 -8 8 -20 19 -25 15 -9 18 -7 17 12 -1 25 -36 38 -36
13z"/>
<path d="M11540 5790 c0 -5 5 -10 11 -10 5 0 7 5 4 10 -3 6 -8 10 -11 10 -2 0
-4 -4 -4 -10z"/>
<path d="M10736 5755 c-3 -8 -1 -15 4 -15 13 0 22 18 11 24 -5 3 -11 -1 -15
-9z"/>
<path d="M10871 5646 c-9 -10 -9 -16 -1 -21 13 -8 42 14 34 26 -8 13 -20 11
-33 -5z"/>
<path d="M11587 5513 c-4 -3 -7 -11 -7 -17 0 -6 5 -5 12 2 6 6 9 14 7 17 -3 3
-9 2 -12 -2z"/>
<path d="M11750 5399 c0 -5 5 -7 10 -4 6 3 10 8 10 11 0 2 -4 4 -10 4 -5 0
-10 -5 -10 -11z"/>
<path d="M11696 5392 c-3 -3 -6 -12 -6 -21 0 -11 3 -12 8 -5 4 7 16 14 27 16
19 4 19 4 -2 10 -12 3 -24 3 -27 0z"/>
<path d="M9964 2971 c-123 -76 -119 -275 5 -312 52 -15 88 3 121 61 21 38 25
58 25 127 0 67 -4 86 -21 110 -27 36 -85 42 -130 14z"/>
<path d="M10455 2916 c-87 -40 -122 -155 -75 -251 24 -50 65 -75 123 -75 83 0
144 64 154 163 6 61 -20 125 -62 153 -34 22 -103 27 -140 10z"/>
<path d="M10954 2845 c-83 -83 -91 -260 -13 -300 86 -45 187 20 209 135 13 71
0 120 -45 159 -47 41 -113 44 -151 6z"/>
<path d="M11935 2684 c-129 -44 -170 -218 -74 -310 39 -38 92 -38 150 0 92 61
107 220 27 292 -32 29 -58 34 -103 18z"/>
<path d="M12779 2433 c-86 -72 -92 -233 -12 -305 10 -10 35 -24 56 -33 145
-60 260 92 183 243 -29 57 -48 75 -106 101 -60 27 -82 26 -121 -6z"/>
<path d="M10836 2254 c-9 -24 -7 -54 4 -54 14 0 32 39 26 56 -7 19 -22 18 -30
-2z"/>
<path d="M11900 2041 c-16 -30 -12 -49 11 -62 18 -9 25 -7 42 10 18 17 19 24
9 46 -14 30 -47 33 -62 6z"/>
<path d="M12646 1863 c-11 -11 -6 -31 8 -36 8 -3 20 0 26 8 9 11 7 16 -8 24
-11 6 -22 7 -26 4z"/>
<path d="M18643 9603 c-42 -8 -24 -18 60 -35 75 -16 96 -16 247 -3 91 8 179
18 195 22 l30 6 -25 8 c-26 7 -469 9 -507 2z"/>
<path d="M2555 9590 c-166 -9 -275 -49 -249 -92 11 -17 5 -99 -7 -115 -6 -7
-8 -13 -5 -13 4 0 0 -7 -8 -16 -9 -8 -16 -21 -16 -29 0 -15 16 -19 137 -36 48
-6 88 -17 95 -26 6 -8 13 -38 15 -66 4 -78 20 -87 149 -87 110 0 119 5 84 43
-15 16 -20 31 -17 55 8 58 27 69 172 96 116 21 113 19 104 74 -4 26 -4 68 0
93 8 49 1 68 -34 86 -59 31 -224 43 -420 33z"/>
<path d="M13795 9589 c-99 -6 -180 -22 -189 -37 -3 -5 8 -34 25 -67 16 -32 29
-70 29 -85 0 -15 6 -32 13 -38 7 -6 57 -18 111 -27 54 -8 102 -18 107 -20 8
-6 211 29 242 40 13 5 17 18 17 44 -1 39 2 60 12 76 8 14 21 85 15 85 -2 0
-29 5 -58 11 -90 17 -219 24 -324 18z"/>
<path d="M16020 9589 c-183 -7 -237 -21 -232 -59 2 -14 9 -38 17 -55 7 -16 16
-49 20 -73 8 -50 14 -53 130 -71 56 -9 93 -21 124 -42 l43 -28 33 25 c34 26
59 34 158 54 53 11 57 13 57 40 0 16 -5 32 -10 35 -7 4 -8 11 -1 18 5 7 12 37
16 68 l7 57 -49 11 c-95 22 -160 26 -313 20z"/>
<path d="M18195 9593 c-171 -4 -190 -15 -107 -57 52 -26 111 -86 113 -114 1
-9 2 -30 3 -45 3 -38 20 -47 92 -47 72 0 88 12 75 57 -15 53 16 106 82 137 65
30 73 39 51 57 -16 13 -101 16 -309 12z"/>
<path d="M1940 9205 c-7 -8 -9 -15 -6 -15 4 0 2 -9 -4 -20 -6 -12 -37 -32 -68
-46 l-57 -26 47 -17 c59 -21 61 -22 73 -84 l10 -52 44 -3 c40 -3 83 17 79 37
-1 3 2 19 7 34 8 31 57 61 118 72 53 10 54 22 5 35 -80 20 -133 46 -137 66 -2
10 -8 22 -15 26 -20 13 -83 9 -96 -7z"/>
<path d="M18788 9156 c-15 -13 -33 -26 -40 -29 -9 -3 -3 -16 20 -43 18 -21 37
-51 43 -66 11 -27 29 -38 29 -18 0 6 5 9 12 8 6 -2 14 11 18 28 4 17 14 45 23
62 15 30 14 33 -4 43 -11 5 -17 14 -14 20 4 5 0 9 -7 9 -7 0 -22 2 -33 5 -12
3 -30 -4 -47 -19z"/>
<path d="M3790 9156 c-19 -7 -74 -19 -122 -26 -49 -7 -88 -16 -88 -20 0 -4 23
-12 51 -18 59 -14 107 -45 119 -77 10 -26 63 -69 97 -80 18 -5 25 -1 32 17 22
58 110 125 200 153 18 6 21 9 10 15 -12 6 -126 28 -239 45 -14 2 -41 -2 -60
-9z"/>
<path d="M3006 9073 c5 -25 34 -63 49 -63 14 0 74 53 69 61 -3 5 1 9 8 9 9 0
9 3 -2 10 -8 5 -41 10 -72 10 -56 0 -57 0 -52 -27z"/>
<path d="M18725 8861 c-3 -6 13 -9 37 -9 32 1 38 3 23 9 -28 11 -53 11 -60 0z"/>
</g>
</svg>
